<?xml version="1.0" encoding="UTF-8"?><svg id="Capa_2" xmlns="http://www.w3.org/2000/svg" viewBox="0 0 1080 269.33"><defs><style>.cls-1{fill:#76d0cd;}</style></defs><g id="Capa_1-2"><g><g><path class="cls-1" d="M127.06,241.79c-5.16-.21-10.25-.8-15.24-1.76,.32,3.56,.49,7.14,.49,10.74,0,.59,0,1.19-.01,1.78-25.62-4.27-49.11-17.02-66.8-36.42-19.62-21.5-30.43-49.38-30.43-78.51,0-.6,0-1.21,.01-1.8,4.16,.7,8.28,1.61,12.31,2.75,2.35,.66,4.68,1.39,6.99,2.2,5.37,1.88,10.58,4.16,15.61,6.82,2.62,1.37,5.19,2.85,7.71,4.43,8.86,5.56,16.99,12.36,24.19,20.23,9.57,10.51,17.06,22.53,22.19,35.48,5.61,2.19,11.49,3.71,17.55,4.5-5.63-18.46-15.33-35.58-28.61-50.13-10.57-11.58-22.96-21.07-36.58-28.14-2.23-1.16-4.47-2.25-6.76-3.27-4.73-2.13-9.6-3.98-14.56-5.53-2.24-.7-4.49-1.33-6.76-1.91-6.42-1.63-12.99-2.79-19.67-3.44l-7.59-.74-.65,7.6c-.3,3.56-.45,7.24-.45,10.97,0,32.9,12.21,64.38,34.36,88.66,22.01,24.12,51.96,39.14,84.32,42.31l7.59,.73,.65-7.59c.3-3.55,.45-7.24,.45-10.97,0-3-.1-6-.31-8.98Z"/><path class="cls-1" d="M141.84,224.39c-.79-1.6-1.52-3.25-2.19-4.94-2.68,.26-5.36,.38-8.04,.38h-.01c-.25,0-.5,0-.75-.01-2.41-.01-4.83-.14-7.23-.37-5.6-.54-11.15-1.66-16.56-3.35-2.17-.66-4.3-1.43-6.41-2.28-.66-.27-1.32-.54-1.98-.83-9.16-3.99-17.73-9.71-25.22-17.2-11.21-11.21-18.5-24.89-21.87-39.3-5.31-3.15-10.87-5.84-16.63-8.06,2.34,21.21,11.63,41.79,27.85,58.01,11.57,11.57,25.52,19.86,40.75,24.41,2.42,.73,4.88,1.37,7.37,1.89,5.07,1.1,10.23,1.8,15.5,2.06,1.73,.09,3.45,.14,5.19,.14,.61,0,1.22,0,1.83-.02,3.29-.06,6.56-.28,9.78-.66l2.14-3.59c-1.29-2.05-2.46-4.14-3.51-6.27Zm86.79-94.13c-1.73-23.22-11.6-44.81-28.22-61.44L131.59,0,62.78,68.82c-14.02,14.03-22.87,31.3-26.52,49.42,4.89,1.48,9.68,3.25,14.35,5.26,2.78-16.13,10.4-31.6,22.83-44.03l58.15-58.15,58.15,58.15c9.54,9.54,16.23,20.84,20.1,32.87,2.19,6.8,3.47,13.85,3.84,20.93,.24,4.57,.1,9.15-.42,13.69-.25,2.31-.61,4.6-1.07,6.87-3.06,15.38-10.55,30.06-22.44,41.95-6.97,6.97-14.88,12.41-23.32,16.34,.01,.05,.03,.08,.06,.13,2.32,4.71,5.42,8.82,9.12,12.21,9.05-4.59,17.41-10.64,24.79-18.02,13.02-13.03,21.9-29.08,25.95-46.58,.58-2.4,1.04-4.82,1.41-7.27,.74-4.81,1.12-9.7,1.14-14.65v-.3c0-2.47-.09-4.93-.28-7.37Z"/><path class="cls-1" d="M278.19,200.09c.58-7.16,.14-14.47-1.4-21.69l-14.2-1.67c-.99-3.36-2.25-6.68-3.85-9.92-1.6-3.25-3.45-6.27-5.52-9.1l7.33-12.27c-4.78-5.62-10.29-10.42-16.33-14.33l-8.36,6.6c0,6.54-.6,12.97-1.8,19.26,5.1,4.2,9.4,9.52,12.51,15.83,11.74,23.84,1.94,52.68-21.91,64.42-6.84,3.36-14.08,4.96-21.22,4.96-10.36,0-20.49-3.36-28.79-9.55-2.05-1.51-3.99-3.21-5.8-5.07-3.4-3.51-6.33-7.62-8.61-12.25-.08-.17-.17-.35-.24-.52-1.02-2.12-1.87-4.28-2.55-6.46-6.92-22.23,3.15-46.83,24.7-57.44,6.84-3.36,14.08-4.96,21.22-4.96,1.01,0,2.01,.03,3,.1,1.01-9.01,.39-18.16-1.83-27-.41-.01-.8-.01-1.21-.01-5.18,0-10.41,.54-15.59,1.65l-1.67,14.2c-3.36,.99-6.68,2.26-9.92,3.85-3.25,1.6-6.27,3.47-9.1,5.52l-12.27-7.33c-5.62,4.78-10.42,10.29-14.33,16.33l8.86,11.22c-3.42,6.25-5.73,13.04-6.83,20.08l-13.86,3.49c-.58,7.17-.14,14.48,1.4,21.69l14.2,1.67c.05,.14,.08,.28,.13,.42,.66,2.23,1.46,4.44,2.4,6.62,.42,.96,.86,1.92,1.33,2.89,1.59,3.25,3.45,6.27,5.51,9.1l-1.4,2.34-4.73,7.93-1.19,2.01c4.78,5.63,10.29,10.43,16.33,14.34l11.22-8.86c6.25,3.41,13.04,5.71,20.08,6.83l3.49,13.85c2.03,.16,4.06,.24,6.1,.24,5.18,0,10.41-.53,15.59-1.65l1.67-14.2c3.36-.99,6.68-2.25,9.92-3.85s6.28-3.45,9.1-5.52l12.27,7.33c5.63-4.78,10.43-10.29,14.34-16.33l-8.86-11.22c3.41-6.25,5.71-13.04,6.83-20.06l13.85-3.5Z"/></g><g><path class="cls-1" d="M570.23,158.1h-51.73c.41,5.41,2.42,9.75,6.02,13.02,3.61,3.28,8.03,4.91,13.27,4.91,7.53,0,12.86-3.15,15.97-9.46h15.11c-2.05,6.23-5.76,11.33-11.12,15.3-5.36,3.97-12.02,5.96-19.96,5.96-6.47,0-12.27-1.45-17.39-4.36-5.12-2.91-9.13-7.01-12.04-12.29-2.91-5.28-4.36-11.41-4.36-18.37s1.41-13.09,4.24-18.37c2.83-5.28,6.8-9.36,11.92-12.23,5.12-2.87,11-4.3,17.63-4.3s12.08,1.39,17.08,4.18c4.99,2.79,8.89,6.7,11.67,11.73,2.79,5.04,4.18,10.83,4.18,17.39,0,2.54-.17,4.84-.49,6.88Zm-14.13-11.31c-.08-5.16-1.93-9.29-5.53-12.41-3.61-3.11-8.07-4.67-13.39-4.67-4.84,0-8.97,1.53-12.41,4.61-3.44,3.07-5.49,7.23-6.14,12.47h37.48Z"/><path class="cls-1" d="M679.93,174.2l19.16-55.17h14.87l-25.8,68.81h-16.71l-25.68-68.81h14.99l19.17,55.17Z"/><path class="cls-1" d="M783.29,158.1h-51.73c.41,5.41,2.42,9.75,6.02,13.02,3.61,3.28,8.03,4.91,13.27,4.91,7.53,0,12.86-3.15,15.97-9.46h15.11c-2.05,6.23-5.76,11.33-11.12,15.3-5.36,3.97-12.02,5.96-19.96,5.96-6.47,0-12.27-1.45-17.39-4.36-5.12-2.91-9.13-7.01-12.04-12.29-2.91-5.28-4.36-11.41-4.36-18.37s1.41-13.09,4.24-18.37c2.83-5.28,6.8-9.36,11.92-12.23,5.12-2.87,11-4.3,17.63-4.3s12.08,1.39,17.08,4.18c4.99,2.79,8.89,6.7,11.67,11.73,2.79,5.04,4.18,10.83,4.18,17.39,0,2.54-.17,4.84-.49,6.88Zm-14.13-11.31c-.08-5.16-1.93-9.29-5.53-12.41-3.61-3.11-8.07-4.67-13.39-4.67-4.84,0-8.97,1.53-12.41,4.61-3.44,3.07-5.49,7.23-6.14,12.47h37.48Z"/><path class="cls-1" d="M848.96,184.95c-4.22-1.92-7.55-4.55-10.01-7.86-2.46-3.32-3.77-7.02-3.93-11.12h14.5c.25,2.87,1.62,5.27,4.12,7.19,2.5,1.92,5.63,2.89,9.4,2.89s6.98-.76,9.16-2.27c2.17-1.51,3.25-3.46,3.25-5.84,0-2.54-1.21-4.42-3.63-5.65-2.41-1.23-6.24-2.58-11.49-4.06-5.08-1.39-9.22-2.74-12.41-4.05-3.2-1.31-5.96-3.32-8.29-6.02-2.34-2.71-3.5-6.27-3.5-10.69,0-3.61,1.07-6.9,3.2-9.89,2.13-2.99,5.18-5.35,9.16-7.06,3.97-1.72,8.54-2.58,13.7-2.58,7.7,0,13.91,1.94,18.62,5.83,4.71,3.89,7.23,9.2,7.56,15.91h-14.01c-.25-3.03-1.48-5.45-3.69-7.25-2.21-1.8-5.2-2.7-8.97-2.7s-6.51,.7-8.48,2.09c-1.97,1.4-2.95,3.24-2.95,5.53,0,1.8,.65,3.32,1.97,4.55,1.31,1.23,2.91,2.2,4.79,2.89,1.89,.69,4.67,1.58,8.36,2.64,4.91,1.31,8.95,2.64,12.1,3.99,3.15,1.35,5.88,3.34,8.17,5.96,2.29,2.62,3.48,6.1,3.56,10.44,0,3.85-1.06,7.29-3.19,10.32-2.13,3.03-5.14,5.4-9.03,7.12-3.89,1.72-8.46,2.58-13.7,2.58s-10.1-.96-14.32-2.89Z"/><path class="cls-1" d="M459.92,117.77c-18.67,0-33.84,14.78-34.52,33.24-.04,.43-.04,.9-.04,1.33v66.6h14.01v-38.8c5.74,4.24,12.85,6.77,20.56,6.77,19.1,0,34.56-15.46,34.56-34.56s-15.46-34.56-34.56-34.56Zm0,56.79c-11.01,0-20-9.29-20.56-21.07-.04-.39-.04-.77-.04-1.16s0-.77,.04-1.11v-.21c.64-11.69,9.64-20.9,20.56-20.9s20.6,9.94,20.6,22.23-9.21,22.23-20.6,22.23Z"/><path class="cls-1" d="M425.35,151h.04c-.04,.43-.04,.9-.04,1.33v-1.33Z"/><path class="cls-1" d="M439.36,151.22v2.27c-.04-.39-.04-.77-.04-1.16s0-.77,.04-1.11Z"/><path class="cls-1" d="M580.23,149.07v38.77h14.01v-38.77c0-9.36,7.59-16.96,16.96-16.96h0c9.36,0,16.96,7.59,16.96,16.96v38.77h14.01v-38.77c0-17.1-13.86-30.96-30.96-30.96h0c-17.1,0-30.96,13.86-30.96,30.96Z"/><path class="cls-1" d="M898.71,156.87v-36.63h14.01v36.63c0,9.36,7.59,16.96,16.96,16.96h0c9.36,0,16.96-7.59,16.96-16.96v-36.63h14.01v36.63c0,17.1-13.86,30.96-30.96,30.96h0c-17.1,0-30.96-13.86-30.96-30.96Z"/><path class="cls-1" d="M1049.04,117.45c-9.66,0-18.28,4.43-23.96,11.36-5.68-6.93-14.3-11.36-23.96-11.36-17.1,0-30.96,13.86-30.96,30.96v38.77h14.01v-38.77c0-9.36,7.59-16.96,16.96-16.96s16.96,7.59,16.96,16.96v38.77h14.01v-38.77c0-9.36,7.59-16.96,16.96-16.96s16.96,7.59,16.96,16.96v38.77h14.01v-38.77c0-17.1-13.86-30.96-30.96-30.96Z"/><path class="cls-1" d="M824.26,118.1c-8.57,0-16.32,3.47-21.89,9.08-5.61,5.61-9.08,13.36-9.08,21.89v38.77h14.01v-38.77c0-9.38,7.58-16.96,16.96-16.96h3.49v-14h-3.49Z"/><path class="cls-1" d="M363.78,184.58c-5.24-2.96-9.37-7.13-12.36-12.51-2.99-5.38-4.49-11.6-4.48-18.68,0-7,1.55-13.2,4.64-18.62,3.08-5.41,7.3-9.57,12.63-12.48,5.33-2.91,11.29-4.36,17.87-4.36,6.58,0,12.54,1.47,17.87,4.39,5.33,2.92,9.53,7.09,12.61,12.51,3.08,5.42,4.61,11.62,4.61,18.62,0,7-1.59,13.2-4.76,18.61-3.17,5.41-7.49,9.6-12.94,12.55-5.46,2.95-11.48,4.43-18.06,4.42-6.5,0-12.37-1.49-17.61-4.45Zm27.94-10.54c3.21-1.75,5.81-4.37,7.82-7.86,2-3.5,3.01-7.75,3.01-12.74,0-5-.95-9.23-2.86-12.69-1.91-3.46-4.45-6.06-7.62-7.82-3.17-1.75-6.58-2.63-10.25-2.63-3.67,0-7.06,.87-10.18,2.62-3.13,1.75-5.61,4.35-7.44,7.8-1.84,3.46-2.76,7.68-2.76,12.68,0,7.42,1.88,13.14,5.67,17.19,3.79,4.05,8.55,6.07,14.3,6.07,3.67,0,7.1-.87,10.31-2.62Z"/></g></g></g></svg>