<?xml version="1.0" encoding="UTF-8"?><svg id="Capa_2" xmlns="http://www.w3.org/2000/svg" viewBox="0 0 440.75 74.19"><defs><style>.cls-1{fill:#e1007f;}.cls-2{fill:#1e1e1c;}</style></defs><g id="Capa_1-2"><g><g><path class="cls-1" d="m208.67,16.2c2.02,0,3.65,1.7,3.65,3.78s-1.64,3.78-3.65,3.78-3.65-1.69-3.65-3.78,1.64-3.78,3.65-3.78"/><path class="cls-1" d="m222.37,16.2c2.02,0,3.65,1.7,3.65,3.78s-1.63,3.78-3.65,3.78-3.65-1.69-3.65-3.78,1.63-3.78,3.65-3.78"/><path class="cls-1" d="m208.67,6.93c1.45,0,2.63,1.22,2.63,2.72s-1.17,2.72-2.63,2.72-2.63-1.22-2.63-2.72,1.18-2.72,2.63-2.72"/><path class="cls-1" d="m222.37,6.93c1.45,0,2.63,1.22,2.63,2.72s-1.18,2.72-2.63,2.72-2.63-1.22-2.63-2.72,1.17-2.72,2.63-2.72"/><path class="cls-1" d="m208.67,0c1.21,0,2.19,1.02,2.19,2.27s-.98,2.27-2.19,2.27-2.19-1.02-2.19-2.27.98-2.27,2.19-2.27"/><path class="cls-1" d="m222.37,0c1.21,0,2.19,1.02,2.19,2.27s-.98,2.27-2.19,2.27-2.19-1.02-2.19-2.27.98-2.27,2.19-2.27"/><path class="cls-1" d="m196.41,27.33c1.43-1.48,3.74-1.48,5.17,0,1.42,1.48,1.42,3.87,0,5.35-1.43,1.47-3.74,1.47-5.17,0-1.42-1.48-1.43-3.87,0-5.35"/><path class="cls-1" d="m190.07,20.78c1.03-1.06,2.69-1.06,3.72,0,1.03,1.06,1.03,2.78,0,3.85-1.03,1.06-2.69,1.06-3.72,0-1.03-1.06-1.03-2.79,0-3.85"/><path class="cls-1" d="m199.76,10.76c1.03-1.06,2.69-1.06,3.72,0,1.03,1.06,1.03,2.78,0,3.85-1.03,1.06-2.69,1.06-3.72,0-1.03-1.06-1.03-2.79,0-3.85"/><path class="cls-1" d="m185.34,15.88c.86-.89,2.25-.89,3.1,0,.86.89.86,2.32,0,3.21-.85.88-2.24.88-3.1,0-.85-.88-.86-2.32,0-3.21"/><path class="cls-1" d="m195.02,5.86c.85-.88,2.24-.88,3.1,0,.85.88.85,2.32,0,3.21-.86.88-2.25.88-3.1,0-.85-.89-.86-2.32,0-3.21"/><path class="cls-1" d="m234.64,27.33c-1.43-1.48-3.74-1.48-5.17,0-1.43,1.48-1.43,3.87,0,5.35,1.42,1.47,3.74,1.47,5.17,0,1.43-1.48,1.43-3.87,0-5.35"/><path class="cls-1" d="m240.97,20.78c-1.03-1.06-2.69-1.06-3.72,0-1.03,1.06-1.03,2.78,0,3.85,1.03,1.06,2.69,1.06,3.72,0,1.03-1.06,1.03-2.79,0-3.85"/><path class="cls-1" d="m231.29,10.76c-1.03-1.06-2.69-1.06-3.72,0-1.03,1.06-1.03,2.78,0,3.85,1.03,1.06,2.69,1.06,3.72,0,1.03-1.06,1.03-2.79,0-3.85"/><path class="cls-1" d="m245.71,15.88c-.86-.89-2.25-.89-3.1,0-.86.89-.86,2.32,0,3.21.85.88,2.24.88,3.1,0,.85-.88.86-2.32,0-3.21"/><path class="cls-1" d="m236.02,5.86c-.85-.88-2.24-.88-3.1,0-.86.88-.85,2.32,0,3.21.85.88,2.24.88,3.1,0,.85-.89.85-2.32,0-3.21"/><path class="cls-1" d="m196.41,46.85c1.43,1.48,3.74,1.48,5.17,0,1.42-1.48,1.42-3.87,0-5.34-1.43-1.48-3.74-1.48-5.17,0-1.42,1.47-1.43,3.87,0,5.34"/><path class="cls-1" d="m206.09,56.87c1.43,1.48,3.74,1.48,5.17,0,1.42-1.48,1.42-3.87,0-5.34-1.42-1.48-3.74-1.48-5.16,0-1.43,1.48-1.43,3.87,0,5.34"/><path class="cls-1" d="m190.07,53.4c1.03,1.06,2.69,1.06,3.72,0,1.03-1.06,1.03-2.78,0-3.85-1.03-1.07-2.69-1.07-3.72,0-1.03,1.06-1.03,2.79,0,3.85"/><path class="cls-1" d="m199.76,63.42c1.03,1.06,2.69,1.06,3.72,0,1.03-1.06,1.03-2.78,0-3.85-1.03-1.06-2.69-1.06-3.72,0-1.03,1.06-1.03,2.79,0,3.85"/><path class="cls-1" d="m185.34,58.3c.86.88,2.25.88,3.1,0,.86-.89.86-2.32,0-3.21-.85-.89-2.24-.89-3.1,0-.85.88-.86,2.32,0,3.21"/><path class="cls-1" d="m195.02,68.32c.85.88,2.24.88,3.1,0,.85-.89.85-2.32,0-3.21-.86-.89-2.25-.89-3.1,0-.85.89-.86,2.32,0,3.21"/><path class="cls-1" d="m234.64,46.85c-1.43,1.48-3.74,1.48-5.17,0-1.43-1.48-1.43-3.87,0-5.34,1.42-1.48,3.74-1.48,5.17,0,1.43,1.47,1.43,3.87,0,5.34"/><path class="cls-1" d="m224.95,56.87c-1.43,1.48-3.74,1.48-5.17,0-1.42-1.48-1.42-3.87,0-5.34,1.43-1.48,3.74-1.48,5.16,0,1.43,1.48,1.43,3.87,0,5.34"/><path class="cls-1" d="m240.97,53.4c-1.03,1.06-2.69,1.06-3.72,0-1.03-1.06-1.03-2.78,0-3.85,1.03-1.07,2.69-1.07,3.72,0,1.03,1.06,1.03,2.79,0,3.85"/><path class="cls-1" d="m231.29,63.42c-1.03,1.06-2.69,1.06-3.72,0-1.03-1.06-1.03-2.78,0-3.85,1.03-1.06,2.69-1.06,3.72,0,1.03,1.06,1.03,2.79,0,3.85"/><path class="cls-1" d="m245.71,58.3c-.86.88-2.25.88-3.1,0-.86-.89-.86-2.32,0-3.21.85-.89,2.24-.89,3.1,0,.85.88.86,2.32,0,3.21"/><path class="cls-1" d="m236.02,68.32c-.85.88-2.24.88-3.1,0-.86-.89-.85-2.32,0-3.21.85-.89,2.24-.89,3.1,0,.85.89.85,2.32,0,3.21"/><path class="cls-1" d="m208.67,67.26c1.45,0,2.63-1.22,2.63-2.72s-1.17-2.72-2.63-2.72-2.63,1.22-2.63,2.72,1.18,2.72,2.63,2.72"/><path class="cls-1" d="m222.37,67.26c1.45,0,2.63-1.22,2.63-2.72s-1.18-2.72-2.63-2.72-2.63,1.22-2.63,2.72,1.17,2.72,2.63,2.72"/><path class="cls-1" d="m208.67,74.19c1.21,0,2.19-1.02,2.19-2.27s-.98-2.26-2.19-2.26-2.19,1.01-2.19,2.26.98,2.27,2.19,2.27"/><path class="cls-1" d="m222.37,74.19c1.21,0,2.19-1.02,2.19-2.27s-.98-2.26-2.19-2.26-2.19,1.01-2.19,2.26.98,2.27,2.19,2.27"/><path class="cls-1" d="m244.66,44.18c0-1.51-1.17-2.72-2.63-2.72s-2.63,1.22-2.63,2.72,1.18,2.72,2.63,2.72,2.63-1.21,2.63-2.72"/><path class="cls-1" d="m244.66,30.01c0-1.5-1.17-2.72-2.63-2.72s-2.63,1.22-2.63,2.72,1.18,2.72,2.63,2.72,2.63-1.22,2.63-2.72"/><path class="cls-1" d="m251.37,44.18c0-1.25-.99-2.27-2.19-2.27s-2.19,1.02-2.19,2.27.98,2.27,2.19,2.27,2.19-1.02,2.19-2.27"/><path class="cls-1" d="m251.37,30.01c0-1.25-.99-2.27-2.19-2.27s-2.19,1.01-2.19,2.27.98,2.27,2.19,2.27,2.19-1.02,2.19-2.27"/><path class="cls-1" d="m186.36,30.01c0,1.5,1.18,2.72,2.63,2.72s2.63-1.22,2.63-2.72-1.18-2.72-2.63-2.72-2.63,1.22-2.63,2.72"/><path class="cls-1" d="m186.36,44.18c0,1.51,1.18,2.72,2.63,2.72s2.63-1.21,2.63-2.72-1.18-2.72-2.63-2.72-2.63,1.22-2.63,2.72"/><path class="cls-1" d="m179.66,30.01c0,1.25.98,2.27,2.19,2.27s2.19-1.02,2.19-2.27-.98-2.27-2.19-2.27-2.19,1.01-2.19,2.27"/><path class="cls-1" d="m179.66,44.18c0,1.25.98,2.27,2.19,2.27s2.19-1.02,2.19-2.27-.98-2.27-2.19-2.27-2.19,1.02-2.19,2.27"/></g><g><path class="cls-2" d="m26.07,63.54h17.88v-1.24h-.63c-3.79,0-5.06-1.05-5.06-5.69v-27.13c0-4.06,1.01-5.23,4.8-5.36v-1.24h-16.24v1.24h1.2c3.92,0,4.99,1.31,4.99,4.77v12.88H10.62v-11.38c0-5.03.76-6.28,5.25-6.28v-1.24H.82v1.24c3.48.26,4.55,1.24,4.55,4.64v28.77c0,3.72-1.26,4.77-4.99,4.77h-.38v1.24h15.86v-1.24h-.19c-4.23,0-5.05-1.51-5.05-5.76v-12.42h22.41v13.27c0,3.4-.88,4.91-4.99,4.91h-1.96v1.24Z"/><path class="cls-2" d="m171.24,21.89h-1.2c-.06.39-.32.65-.69.78-.38.13-.82.19-1.26.19h-30c-.45,0-.89-.07-1.26-.19-.38-.13-.63-.39-.7-.78h-1.2l-.02.85-.71,9.74h1.19c.35-6.08,1.41-7.26,4.28-7.26h10.94v32.16c0,3.4-.89,4.9-4.99,4.9h-1.96v1.24h17.89v-1.24h-.63c-3.79,0-5.06-1.04-5.06-5.69v-31.37h10.65c2.88,0,3.22,1.18,3.57,7.26h1.19v-9.74l-.02-.85Z"/><path class="cls-2" d="m112.66,58.76v-30.14c0-4.05,1.08-4.51,5.18-4.51h2.34v-1.24h-18.64v1.24h.89c3.98,0,4.99,1.44,4.99,4.9v28.97c0,3.33-1.08,4.31-3.98,4.31h-2.08v1.24h28.25l3.46-7.96h-1.34c-2.16,3.9-3.04,5.61-7.24,5.61h-9.29c-1.83,0-2.53-.65-2.53-2.42"/><path class="cls-2" d="m94.6,24.1v-1.24h-14.78v1.24c5.22.26,6.16,1.36,6.16,7.61v16.19c0,10.51-6.52,13.8-12.24,13.8s-12.24-4.89-12.24-13.8v-18.92c0-3.78,1.52-4.88,4.98-4.88h.57v-1.23h-16.17v1.23c4.28.07,5.4.72,5.4,4.88,0,0,0,15.88,0,19.12,0,13.12,9.92,17.01,16.3,17.01,11.56,0,16.3-8.86,16.3-17.01v-18.02c0-4.17,1.52-5.92,5.74-5.99"/></g><path class="cls-2" d="m272.34,45.67c1.86.38,3.4.5,5.26.5,9.15,0,14.95-4.71,14.95-12.18,0-4.91-2.96-11.28-15.88-11.28-1.67,0-4.64.07-7.66.19-3.03.13-6.05.32-7.78.38v1.2h3.09c2.16,0,2.9,1.02,2.9,3.38v30.18c0,3-.93,3.7-4.14,3.7h-.86v1.2h17.12v-1.2h-2.04c-3.9,0-4.95-1.34-4.95-4.91v-11.16Zm0-21.5c1.49-.25,2.84-.25,4.27-.25,8.22,0,10.14,4.92,10.14,9.89,0,6.44-4.33,11.17-11.07,11.17-1.17,0-2.54-.32-3.34-.51v-20.3Zm34.73,22.01c.99.06,1.79.13,3.16.13,1.67,0,2.66-.07,4.2-.13,1.48,1.02,3.65,2.87,6.37,5.68l4.08,4.21c5.49,5.68,8.28,8.1,19.09,7.59v-1.14c-4.76-.32-8.53-2.68-12.17-6.44l-4.88-5.04c-2.9-3-4.75-4.79-7.04-6.63,5.07-1.53,8.21-5.55,8.21-10.34,0-6.51-5.12-11.35-16.56-11.35-4.02,0-5.25.07-7.78.19-2.53.13-6.3.38-7.78.38v1.2h1.36c3.59,0,4.64,1.15,4.64,5.11v26.86c0,4.28-1.3,5.3-4.94,5.3h-1.05v1.2h17.48v-1.2h-1.42c-3.46,0-4.95-.96-4.95-4.78v-10.79Zm0-22.14c1.11-.13,1.92-.13,3.09-.13,9.52,0,12.12,4.6,12.12,10.53,0,7.66-4.51,10.66-11.38,10.66-1.42,0-2.35.06-3.84-.13v-20.93Zm55.07,37.71c-4.26,0-5.25-1.27-5.25-5.04v-27.06c0-4.27,1.36-5.17,5.25-5.17v-1.2h-15.01v1.2c3.46.19,4.63,1.15,4.63,4.59v27.18c0,4.27-.8,5.3-4.63,5.49v1.2h15.01v-1.2Zm5.24,1.2h35.67l.74-11.54h-1.11c-1.42,6.83-1.97,9.25-6.61,9.25h-21.88l27.93-35.92v-1.46h-31.84l-.31,8.99h1.12c.49-5.42,1.67-6.7,5.69-6.7h18.36l-27.76,35.92v1.46Zm68.06-26.47h-1.17c-.31,3.7-1.36,4.79-3.59,4.79h-11.07v-15.7h13.05c2.22,0,3.76,1.15,4.57,6.58h1.11l-.49-8.86h-29.66v1.2h1.36c4.14,0,4.94,1.53,4.94,5.11v26.93c0,3.83-.86,5.23-5.81,5.23h-1.73v1.2h32.81l.99-9.5h-1.11c-1.54,5.49-2.84,7.21-7.16,7.21h-9.52c-2.29,0-3.34-.58-3.34-3.51v-13.59h10.45c2.53,0,3.71.51,4.21,5.04h1.17v-12.12Z"/></g></g></svg>