<?xml version="1.0" encoding="UTF-8"?><svg id="Capa_2" xmlns="http://www.w3.org/2000/svg" xmlns:xlink="http://www.w3.org/1999/xlink" viewBox="0 0 540 225.04"><defs><style>.cls-1{fill:url(#Degradado_sin_nombre_18);opacity:.42;}.cls-1,.cls-2,.cls-3,.cls-4,.cls-5,.cls-6,.cls-7,.cls-8,.cls-9,.cls-10,.cls-11,.cls-12,.cls-13,.cls-14,.cls-15,.cls-16,.cls-17,.cls-18,.cls-19,.cls-20,.cls-21,.cls-22,.cls-23{isolation:isolate;}.cls-2{fill:url(#Degradado_sin_nombre_25);opacity:.51;}.cls-3{fill:url(#Degradado_sin_nombre_21);opacity:.73;}.cls-4{fill:url(#Degradado_sin_nombre_12);}.cls-4,.cls-5{opacity:.13;}.cls-5{fill:url(#Degradado_sin_nombre_35);}.cls-6{fill:url(#Degradado_sin_nombre_34);opacity:.17;}.cls-7{fill:url(#Degradado_sin_nombre_13);opacity:.18;}.cls-8{fill:url(#Degradado_sin_nombre_15);opacity:.27;}.cls-9{fill:url(#Degradado_sin_nombre_19);opacity:.31;}.cls-24,.cls-11{fill:#f7a23c;}.cls-25{fill:#ff9f2d;}.cls-26,.cls-12,.cls-20,.cls-21,.cls-22,.cls-23{fill:#fff;}.cls-27{fill:#ff1407;}.cls-28{fill:#ff37a8;}.cls-29,.cls-10,.cls-13,.cls-18{fill:#ff2a8a;}.cls-30,.cls-17{fill:#f30608;}.cls-31{fill:#ff1e54;}.cls-32{fill:#ff2450;}.cls-33{fill:#ff5e64;}.cls-34{fill:#747474;}.cls-10{opacity:.34;}.cls-35{fill:url(#Degradado_sin_nombre_3-2);}.cls-11,.cls-12,.cls-13{opacity:.83;}.cls-14{opacity:.35;}.cls-14,.cls-16{fill:#d00035;}.cls-15{fill:#ed006f;opacity:.55;}.cls-16{opacity:.53;}.cls-17{opacity:.6;}.cls-18{opacity:.43;}.cls-19{fill:url(#Degradado_sin_nombre_21-2);opacity:.5;}.cls-36{fill:url(#Degradado_sin_nombre_30);}.cls-37{fill:url(#Degradado_sin_nombre_38);}.cls-38{fill:url(#Degradado_sin_nombre_37);}.cls-39{fill:url(#Degradado_sin_nombre_32);}.cls-40{fill:url(#Degradado_sin_nombre_31);}.cls-41{fill:url(#Degradado_sin_nombre_36);}.cls-42{fill:url(#Degradado_sin_nombre_33);}.cls-43{fill:url(#Degradado_sin_nombre_10);}.cls-44{fill:url(#Degradado_sin_nombre_22);}.cls-45{fill:url(#Degradado_sin_nombre_23);}.cls-46{fill:url(#Degradado_sin_nombre_24);}.cls-47{fill:url(#Degradado_sin_nombre_27);}.cls-48{fill:url(#Degradado_sin_nombre_28);}.cls-49{fill:url(#Degradado_sin_nombre_39);}.cls-50{fill:url(#Degradado_sin_nombre_11);}.cls-51{fill:url(#Degradado_sin_nombre_14);}.cls-52{fill:url(#Degradado_sin_nombre_17);}.cls-53{fill:url(#Degradado_sin_nombre_29);}.cls-20{opacity:.05;}.cls-54{fill:url(#Degradado_sin_nombre_6);}.cls-55{fill:url(#Degradado_sin_nombre_7);}.cls-56{fill:url(#Degradado_sin_nombre_2);}.cls-57{fill:url(#Degradado_sin_nombre_3);}.cls-58{fill:url(#Degradado_sin_nombre_8);}.cls-59{fill:url(#Degradado_sin_nombre_9);}.cls-60{fill:url(#Degradado_sin_nombre_4);}.cls-61{fill:url(#Degradado_sin_nombre_5);}.cls-21{opacity:.04;}.cls-22{opacity:.12;}.cls-23{opacity:.06;}.cls-62{fill:url(#Degradado_sin_nombre_27-2);}</style><linearGradient id="Degradado_sin_nombre_3" x1="280.9" y1="1450.55" x2="371.85" y2="1503.06" gradientTransform="translate(-277.5 -1409)" gradientUnits="userSpaceOnUse"><stop offset="0" stop-color="#f6a"/><stop offset="1" stop-color="#ff6b31"/></linearGradient><linearGradient id="Degradado_sin_nombre_2" x1="301.64" y1="1531.05" x2="335.46" y2="1511.52" gradientTransform="translate(-277.5 -1409)" gradientUnits="userSpaceOnUse"><stop offset="0" stop-color="#8787d3"/><stop offset=".25" stop-color="#8b87d3"/><stop offset=".47" stop-color="#9688d2"/><stop offset=".69" stop-color="#a989d2"/><stop offset=".91" stop-color="#c38bd1"/><stop offset="1" stop-color="#d18cd0"/></linearGradient><linearGradient id="Degradado_sin_nombre_3-2" x1="271.81" y1="1466.33" x2="362.73" y2="1518.83" xlink:href="#Degradado_sin_nombre_3"/><linearGradient id="Degradado_sin_nombre_4" x1="331.13" y1="1513.47" x2="342.29" y2="1494.14" gradientTransform="translate(-277.5 -1409)" gradientUnits="userSpaceOnUse"><stop offset="0" stop-color="#cc7cb2"/><stop offset=".26" stop-color="#d17bae"/><stop offset=".59" stop-color="#e077a0"/><stop offset=".94" stop-color="#f97189"/><stop offset="1" stop-color="#ff7084"/></linearGradient><linearGradient id="Degradado_sin_nombre_5" x1="413.91" y1="1470.43" x2="477.97" y2="1470.43" gradientTransform="translate(-277.5 -1409)" gradientUnits="userSpaceOnUse"><stop offset=".17" stop-color="#f64c3a"/><stop offset=".28" stop-color="#f75139"/><stop offset=".42" stop-color="#f76139"/><stop offset=".57" stop-color="#f97b38"/><stop offset=".74" stop-color="#fb9e37"/><stop offset=".82" stop-color="#fcb436"/><stop offset=".99" stop-color="#fcb436"/></linearGradient><linearGradient id="Degradado_sin_nombre_6" x1="413.33" y1="1521.44" x2="476.4" y2="1532.31" gradientTransform="translate(-277.5 -1409)" gradientUnits="userSpaceOnUse"><stop offset="0" stop-color="#ed006f"/><stop offset=".09" stop-color="#ef0d68"/><stop offset=".25" stop-color="#f22f58"/><stop offset=".41" stop-color="#f75745"/><stop offset=".45" stop-color="#f86643"/><stop offset=".64" stop-color="#fb9e3a"/><stop offset=".72" stop-color="#fcb436"/><stop offset=".86" stop-color="#fcb436"/><stop offset="1" stop-color="#fcb436"/></linearGradient><linearGradient id="Degradado_sin_nombre_7" x1="417.26" y1="1575.9" x2="443.4" y2="1519.84" gradientTransform="translate(-277.5 -1409)" gradientUnits="userSpaceOnUse"><stop offset="0" stop-color="#ed006f"/><stop offset=".16" stop-color="#ed046d" stop-opacity=".84"/><stop offset=".32" stop-color="#ee0f6a" stop-opacity=".68"/><stop offset=".47" stop-color="#ef2264" stop-opacity=".53"/><stop offset=".63" stop-color="#f13d5c" stop-opacity=".37"/><stop offset=".78" stop-color="#f36051" stop-opacity=".22"/><stop offset=".92" stop-color="#f58944" stop-opacity=".08"/><stop offset="1" stop-color="#f7a23c" stop-opacity="0"/></linearGradient><linearGradient id="Degradado_sin_nombre_8" x1="413.91" y1="1551.29" x2="458.74" y2="1551.29" gradientTransform="translate(-277.5 -1409)" gradientUnits="userSpaceOnUse"><stop offset="0" stop-color="#ff1a8a" stop-opacity=".6"/><stop offset="1" stop-color="#f7a23c" stop-opacity="0"/></linearGradient><linearGradient id="Degradado_sin_nombre_9" x1="443.43" y1="1477.02" x2="446.02" y2="1470.33" gradientTransform="translate(-277.5 -1409)" gradientUnits="userSpaceOnUse"><stop offset=".1" stop-color="#ef1c7e"/><stop offset=".24" stop-color="#f13a70"/><stop offset=".48" stop-color="#f3675a"/><stop offset=".69" stop-color="#f5874a"/><stop offset=".87" stop-color="#f69b40"/><stop offset=".99" stop-color="#f7a23c"/></linearGradient><linearGradient id="Degradado_sin_nombre_10" x1="411.87" y1="1572.62" x2="454.3" y2="1522.05" gradientTransform="translate(-277.5 -1409)" gradientUnits="userSpaceOnUse"><stop offset="0" stop-color="#f30608" stop-opacity="0"/><stop offset=".26" stop-color="#f60d08" stop-opacity=".19"/><stop offset=".55" stop-color="#ff1b09" stop-opacity=".4"/><stop offset=".6" stop-color="#ff2817" stop-opacity=".36"/><stop offset=".68" stop-color="#ff4a3c" stop-opacity=".29"/><stop offset=".78" stop-color="#ff8077" stop-opacity=".19"/><stop offset=".92" stop-color="#ffcbc7" stop-opacity=".07"/><stop offset="1" stop-color="#fff" stop-opacity="0"/></linearGradient><linearGradient id="Degradado_sin_nombre_11" x1="364.12" y1="1533.7" x2="452.76" y2="1509.95" gradientTransform="translate(-277.5 -1409)" gradientUnits="userSpaceOnUse"><stop offset="0" stop-color="#f64f40"/><stop offset=".08" stop-color="#f8495c"/><stop offset=".24" stop-color="#fd39a1"/><stop offset=".26" stop-color="#ff37a8"/><stop offset=".46" stop-color="#ff399f"/><stop offset=".48" stop-color="#fd3a99"/><stop offset=".6" stop-color="#f94669"/><stop offset=".69" stop-color="#f74c4c"/><stop offset=".74" stop-color="#f64f40"/></linearGradient><linearGradient id="Degradado_sin_nombre_12" x1="413.91" y1="1573.91" x2="440.98" y2="1573.91" gradientTransform="translate(-277.5 -1409)" gradientUnits="userSpaceOnUse"><stop offset="0" stop-color="#d00035" stop-opacity=".2"/><stop offset=".13" stop-color="#d00035"/><stop offset=".77" stop-color="#cf0035"/><stop offset="1" stop-color="#d00035" stop-opacity="0"/></linearGradient><linearGradient id="Degradado_sin_nombre_13" x1="402.38" y1="1528.42" x2="438.84" y2="1561.64" gradientTransform="translate(-277.5 -1409)" gradientUnits="userSpaceOnUse"><stop offset="0" stop-color="#fff"/><stop offset=".99" stop-color="#fff" stop-opacity=".3"/></linearGradient><linearGradient id="Degradado_sin_nombre_14" x1="417.89" y1="1539.92" x2="423.98" y2="1533.49" gradientTransform="translate(-277.5 -1409)" gradientUnits="userSpaceOnUse"><stop offset=".16" stop-color="#ed006f"/><stop offset=".37" stop-color="#e4005d" stop-opacity=".76"/><stop offset=".77" stop-color="#d60040" stop-opacity=".27"/><stop offset="1" stop-color="#d00035" stop-opacity="0"/></linearGradient><linearGradient id="Degradado_sin_nombre_15" x1="415.03" y1="1550.8" x2="418.88" y2="1550.8" gradientTransform="translate(-277.5 -1409)" gradientUnits="userSpaceOnUse"><stop offset="0" stop-color="#d00035" stop-opacity=".4"/><stop offset=".13" stop-color="#d00035"/><stop offset=".6" stop-color="#cf0035"/><stop offset="1" stop-color="#d00035" stop-opacity=".1"/></linearGradient><linearGradient id="Degradado_sin_nombre_35" x1="381.07" y1="1545.64" x2="379.19" y2="1546.96" gradientTransform="translate(-277.5 -1409)" gradientUnits="userSpaceOnUse"><stop offset="0" stop-color="#fff"/><stop offset=".99" stop-color="#fff" stop-opacity=".5"/></linearGradient><linearGradient id="Degradado_sin_nombre_17" x1="425.03" y1="1542.76" x2="425.21" y2="1536.64" gradientTransform="translate(-277.5 -1409)" gradientUnits="userSpaceOnUse"><stop offset=".24" stop-color="#ed006f"/><stop offset=".53" stop-color="#e4005c" stop-opacity=".66"/><stop offset="1" stop-color="#d00035" stop-opacity=".1"/></linearGradient><linearGradient id="Degradado_sin_nombre_18" x1="415.88" y1="1461.63" x2="415.97" y2="1466.83" gradientTransform="translate(-277.5 -1409)" gradientUnits="userSpaceOnUse"><stop offset="0" stop-color="#f64f40"/><stop offset="1" stop-color="#ff9f2d" stop-opacity=".3"/></linearGradient><linearGradient id="Degradado_sin_nombre_19" x1="425.55" y1="1462.61" x2="425.46" y2="1463.41" gradientTransform="translate(-277.5 -1409)" gradientUnits="userSpaceOnUse"><stop offset=".01" stop-color="#ff946b"/><stop offset=".47" stop-color="#fda450"/><stop offset="1" stop-color="#fcb436"/></linearGradient><linearGradient id="Degradado_sin_nombre_21" x1="373.49" y1="1534.11" x2="361.72" y2="1519.29" gradientTransform="translate(-277.5 -1409)" gradientUnits="userSpaceOnUse"><stop offset="0" stop-color="#ff2a8a"/><stop offset="1" stop-color="#ff2a8a" stop-opacity=".4"/></linearGradient><linearGradient id="Degradado_sin_nombre_21-2" x1="399.29" y1="1554.01" x2="392.11" y2="1559.45" xlink:href="#Degradado_sin_nombre_21"/><linearGradient id="Degradado_sin_nombre_22" x1="333.52" y1="1469.58" x2="381.64" y2="1469.58" gradientTransform="translate(-277.5 -1409)" gradientUnits="userSpaceOnUse"><stop offset="0" stop-color="#ed006f"/><stop offset=".24" stop-color="#f30e78" stop-opacity=".86"/><stop offset=".7" stop-color="#fb2285" stop-opacity=".58"/><stop offset="1" stop-color="#ff2a8a" stop-opacity=".4"/></linearGradient><linearGradient id="Degradado_sin_nombre_23" x1="333.52" y1="1469.58" x2="381.64" y2="1469.58" gradientTransform="translate(-277.5 -1409)" gradientUnits="userSpaceOnUse"><stop offset="0" stop-color="#c00"/><stop offset=".38" stop-color="#e60b04"/><stop offset=".74" stop-color="#f81206"/><stop offset="1" stop-color="#ff1407"/></linearGradient><linearGradient id="Degradado_sin_nombre_24" x1="404.4" y1="1482.87" x2="434.03" y2="1499.98" gradientTransform="translate(-277.5 -1409)" gradientUnits="userSpaceOnUse"><stop offset="0" stop-color="#ed006f"/><stop offset=".01" stop-color="#ed016e"/><stop offset=".45" stop-color="#f22b55"/><stop offset=".8" stop-color="#f54546"/><stop offset="1" stop-color="#f64f40"/></linearGradient><linearGradient id="Degradado_sin_nombre_25" x1="421.61" y1="1463.25" x2="449.99" y2="1476.51" gradientTransform="translate(-277.5 -1409)" gradientUnits="userSpaceOnUse"><stop offset=".02" stop-color="#fff" stop-opacity="0"/><stop offset=".12" stop-color="#fff" stop-opacity=".14"/><stop offset=".73" stop-color="#fff"/><stop offset=".99" stop-color="#fff" stop-opacity="0"/></linearGradient><linearGradient id="Degradado_sin_nombre_27" x1="414.97" y1="1519" x2="433.06" y2="1527.58" gradientTransform="translate(-277.5 -1409)" gradientUnits="userSpaceOnUse"><stop offset="0" stop-color="#fff" stop-opacity="1"/><stop offset=".88" stop-color="#fff" stop-opacity=".2"/><stop offset="1" stop-color="#fff" stop-opacity=".1"/></linearGradient><linearGradient id="Degradado_sin_nombre_27-2" x1="413.1" y1="1501.35" x2="443.68" y2="1501.35" xlink:href="#Degradado_sin_nombre_27"/><linearGradient id="Degradado_sin_nombre_28" x1="389.37" y1="1501.53" x2="394.42" y2="1509.7" gradientTransform="translate(-277.5 -1409)" gradientUnits="userSpaceOnUse"><stop offset="0" stop-color="#fff" stop-opacity=".3"/><stop offset="1" stop-color="#fff"/></linearGradient><linearGradient id="Degradado_sin_nombre_29" x1="395.62" y1="1507.46" x2="415.23" y2="1469.65" gradientTransform="translate(-277.5 -1409)" gradientUnits="userSpaceOnUse"><stop offset="0" stop-color="#fff" stop-opacity="1"/><stop offset=".83" stop-color="#fff" stop-opacity=".2"/><stop offset=".93" stop-color="#fff" stop-opacity=".1"/></linearGradient><linearGradient id="Degradado_sin_nombre_30" x1="398.69" y1="1525.89" x2="414.03" y2="1525.89" gradientTransform="translate(-277.5 -1409)" gradientUnits="userSpaceOnUse"><stop offset="0" stop-color="#fff" stop-opacity="1"/><stop offset=".73" stop-color="#fff" stop-opacity=".2"/><stop offset="1" stop-color="#fff" stop-opacity="0"/></linearGradient><linearGradient id="Degradado_sin_nombre_31" x1="393.64" y1="1520.78" x2="399.36" y2="1520.78" gradientTransform="translate(-277.5 -1409)" gradientUnits="userSpaceOnUse"><stop offset="0" stop-color="#fff" stop-opacity=".1"/><stop offset="1" stop-color="#fff" stop-opacity="1"/></linearGradient><linearGradient id="Degradado_sin_nombre_32" x1="335.01" y1="1512.46" x2="352.39" y2="1560.21" gradientTransform="translate(-277.5 -1409)" gradientUnits="userSpaceOnUse"><stop offset="0" stop-color="#ff3580"/><stop offset=".41" stop-color="#ff3583"/><stop offset=".66" stop-color="#ff368b"/><stop offset=".86" stop-color="#ff3699"/><stop offset="1" stop-color="#ff37a8"/></linearGradient><linearGradient id="Degradado_sin_nombre_33" x1="364.99" y1="1534.3" x2="371.63" y2="1545.82" gradientTransform="translate(-277.5 -1409)" gradientUnits="userSpaceOnUse"><stop offset="0" stop-color="#ff5e64"/><stop offset=".49" stop-color="#ff4c83" stop-opacity=".51"/><stop offset="1" stop-color="#ff37a8" stop-opacity="0"/></linearGradient><linearGradient id="Degradado_sin_nombre_34" x1="466.26" y1="1474.45" x2="465.14" y2="1479.88" gradientTransform="translate(-277.5 -1409)" gradientUnits="userSpaceOnUse"><stop offset="0" stop-color="#fff"/><stop offset="1" stop-color="#fff" stop-opacity="0"/></linearGradient><linearGradient id="Degradado_sin_nombre_36" x1="413.49" y1="1485.13" x2="413.49" y2="1432.02" gradientTransform="translate(-277.5 -1409)" gradientUnits="userSpaceOnUse"><stop offset="0" stop-color="#000" stop-opacity="0"/><stop offset=".07" stop-color="#090909" stop-opacity=".1"/><stop offset=".2" stop-color="#232323" stop-opacity=".28"/><stop offset=".35" stop-color="#4b4b4b" stop-opacity=".49"/><stop offset=".5" stop-color="#797979" stop-opacity=".7"/><stop offset="1" stop-color="#747474"/></linearGradient><linearGradient id="Degradado_sin_nombre_37" x1="381.63" y1="1431.19" x2="413.91" y2="1431.19" gradientTransform="translate(-277.5 -1409)" gradientUnits="userSpaceOnUse"><stop offset="0" stop-color="#000" stop-opacity=".05"/><stop offset=".1" stop-color="#040404" stop-opacity=".16"/><stop offset=".21" stop-color="#111" stop-opacity=".28"/><stop offset=".33" stop-color="#262626" stop-opacity=".41"/><stop offset=".44" stop-color="#444" stop-opacity=".53"/><stop offset=".56" stop-color="#696969" stop-opacity=".65"/><stop offset=".6" stop-color="#797979" stop-opacity=".7"/><stop offset="1" stop-color="#747474"/></linearGradient><linearGradient id="Degradado_sin_nombre_38" x1="382.09" y1="1533.31" x2="382.09" y2="1587.84" gradientTransform="translate(-277.5 -1409)" gradientUnits="userSpaceOnUse"><stop offset="0" stop-color="#000" stop-opacity="0"/><stop offset=".06" stop-color="#050505" stop-opacity=".12"/><stop offset=".13" stop-color="#121212" stop-opacity=".25"/><stop offset=".2" stop-color="#292929" stop-opacity=".38"/><stop offset=".27" stop-color="#484848" stop-opacity=".53"/><stop offset=".34" stop-color="#717171" stop-opacity=".67"/><stop offset=".36" stop-color="#797979" stop-opacity=".7"/><stop offset="1" stop-color="#747474"/></linearGradient><linearGradient id="Degradado_sin_nombre_39" x1="413.5" y1="1529.54" x2="413.5" y2="1580.47" gradientTransform="translate(-277.5 -1409)" gradientUnits="userSpaceOnUse"><stop offset="0" stop-color="#000" stop-opacity="0"/><stop offset=".17" stop-color="#030303" stop-opacity=".15"/><stop offset=".31" stop-color="#0e0e0e" stop-opacity=".27"/><stop offset=".44" stop-color="#1f1f1f" stop-opacity=".39"/><stop offset=".57" stop-color="#383838" stop-opacity=".5"/><stop offset=".69" stop-color="#585858" stop-opacity=".61"/><stop offset=".8" stop-color="#797979" stop-opacity=".7"/><stop offset="1" stop-color="#747474"/></linearGradient></defs><g id="Capa_1-2"><g><polygon class="cls-26" points="168.35 75.17 136.41 76.13 136.41 23 104.14 20.5 104.14 77.1 62.51 78.35 62.51 129.18 104.14 124.31 104.14 178.84 136.41 171.32 136.41 120.54 168.35 116.81 168.35 75.17"/><polygon class="cls-33" points="116.05 9.14 89.35 0 52.95 24.81 53.17 26.11 104.14 30.74 104.14 20.5 122.36 21.91 116.05 9.14"/><polygon class="cls-57" points="38.87 24.81 0 47.43 14.94 92.4 48.2 101.33 62.51 83.82 62.51 80.86 53.17 26.11 38.87 24.81"/><polygon class="cls-27" points="62.51 80.86 62.51 78.35 104.14 77.1 104.14 30.74 53.17 26.11 62.51 80.86"/><polygon class="cls-56" points="48.2 101.33 27.09 127.16 58.93 104.21 48.2 101.33"/><polygon class="cls-35" points="58.93 104.21 62.51 101.64 62.51 83.82 48.2 101.33 58.93 104.21"/><polygon class="cls-60" points="58.93 104.21 62.51 101.64 62.51 83.82 48.2 101.33 58.93 104.21"/><g><path class="cls-31" d="m63.77,78.31l-1.26.04,1.26-.04Z"/><polygon class="cls-31" points="62.51 80.86 56.02 42.82 48.96 41.41 62.51 81.87 62.51 80.86"/></g><polygon class="cls-32" points="104.14 124.31 93.98 125.5 104.14 140.32 104.14 124.31"/><polygon class="cls-61" points="200.47 70.79 172.69 67.38 141.52 53.16 136.41 57.14 136.41 52.3 139.83 52.08 200.47 70.79"/><polygon class="cls-54" points="172.69 67.5 135.73 109.44 155.4 118.32 136.41 120.54 136.41 165.34 163.48 169.58 163.48 129.54 169.95 124.89 200.03 103.28 200.47 70.79 172.69 67.5"/><polygon class="cls-24" points="200.47 70.79 172.69 67.38 141.52 53.16 136.41 57.14 136.41 52.3 139.83 52.08 200.47 70.79"/><polygon class="cls-55" points="168.35 116.81 136.41 120.54 136.41 165.34 163.48 169.58 163.48 129.54 174.84 121.38 174.84 115 168.35 115 168.35 116.81"/><polygon class="cls-58" points="168.35 116.81 136.41 120.54 136.41 165.34 163.48 169.58 163.48 129.54 181.24 116.78 174.84 115 168.35 115 168.35 116.81"/><polygon class="cls-24" points="200.47 70.79 172.69 67.38 141.52 53.16 136.41 57.14 136.41 52.3 139.83 52.08 200.47 70.79"/><polygon class="cls-59" points="200.47 70.79 172.67 67.5 141.52 53.16 136.41 57.14 136.41 52.3 139.83 52.08 200.47 70.79"/><polygon class="cls-43" points="168.35 116.81 136.41 120.54 136.41 165.34 163.48 169.58 163.48 129.54 181.24 116.78 174.84 115 168.35 115 168.35 116.81"/><polygon class="cls-50" points="168.35 116.81 168.35 75.17 136.41 76.13 136.41 52.3 131.17 52.8 126.1 65.41 110.86 77.63 111.48 91.75 97.33 77.3 91.84 77.47 106.53 101.91 106.53 103.09 83.02 107.95 83.36 112.53 87.54 115.41 93.82 125.52 104.14 124.31 104.14 140.29 106.53 143.44 108.05 148.87 110.43 153.84 119.86 162.77 127.77 173.33 136.38 171.32 136.41 165.34 136.41 120.54 168.35 116.81"/><polygon class="cls-11" points="136.41 52.3 131.17 52.8 126.1 65.41 136.41 57.14 136.41 52.3"/><polygon class="cls-25" points="139.78 54.42 139.83 52.08 136.41 52.3 136.41 57.14 139.82 54.41 139.78 54.42"/><polygon class="cls-17" points="137.53 147.72 141.52 139.14 148.87 145.06 142.42 154.69 137.53 147.72"/><polygon class="cls-14" points="142.42 154.69 147.63 146.91 160.9 160.24 146.37 160.24 142.42 154.69"/><polygon class="cls-4" points="136.41 160.24 163.48 160.24 163.48 169.58 136.41 165.34 136.41 160.24"/><polygon class="cls-7" points="121.4 109.12 114.16 116.78 163.48 156.81 163.48 156.81 163.48 151.88 121.4 109.12"/><g><polygon class="cls-51" points="144.19 132.41 147.71 124.31 138.86 127.04 144.19 132.41"/><polygon class="cls-8" points="137.68 135.87 137.53 147.72 141.38 138.87 137.68 135.87"/></g><polygon class="cls-21" points="159.27 147.63 158.02 134.13 146.5 126.02 151.37 139.66 159.27 147.63"/><polygon class="cls-15" points="136.41 134.84 127.26 127.41 127.26 123.65 135.64 124.07 136.41 124.88 136.41 134.84"/><polygon class="cls-5" points="100.31 134.73 104.14 136.01 104.14 140.43 100.31 134.73"/><polygon class="cls-52" points="150.76 139.14 144.19 132.41 146.62 126.81 150.76 139.14"/><polygon class="cls-1" points="137.11 52.26 136.99 56.9 139.78 54.58 139.83 52.08 137.11 52.26"/><polygon class="cls-9" points="139.83 52.08 139.78 54.45 155.72 59.76 139.83 52.08"/><polygon class="cls-22" points="138.41 52.17 136.41 54.02 136.41 52.3 138.41 52.17"/><polygon class="cls-3" points="83.05 108.39 85.1 111.74 87.54 115.41 93.82 125.52 98.4 124.99 83.29 107.9 83.02 107.95 83.05 108.39"/><polygon class="cls-10" points="118.9 108.79 112.89 105.79 112.37 108.94 113.12 108.94 111.73 115.37 117.9 111.29 115.14 108.94 118.9 108.79"/><polygon class="cls-18" points="116.05 114.78 114.95 114.56 111.11 118.79 109.57 119.25 110.78 132.8 115.8 124.03 115.32 121.35 116.56 118.73 114.16 116.78 116.05 114.78"/><polygon class="cls-19" points="132.36 160.24 131.42 159.7 131.42 158.62 120.9 147.72 118.9 139.55 104.14 129.31 104.37 139.84 109.57 147.31 112.13 151.66 117.57 158.62 127.72 169.58 132.36 160.24"/><polygon class="cls-13" points="104.14 129.31 108.62 132.41 106.76 121.34 98.4 123.37 98.4 124.99 104.14 124.31 104.14 129.31"/><polyline class="cls-44" points="56.02 42.82 104.14 53.48 104.14 77.1 62.51 78.35 56.02 42.82"/><polyline class="cls-45" points="56.02 42.82 104.14 53.48 104.14 77.1 62.51 78.35 56.02 42.82"/><polygon class="cls-29" points="110.68 77.78 141.52 53.05 116.96 100.95 111.49 91.97 110.68 77.78"/><polygon class="cls-46" points="141.52 53.05 172.69 67.5 135.73 109.44 116.96 100.95 141.52 53.05"/><polygon class="cls-12" points="168.35 75.17 136.41 76.13 136.41 23 104.14 20.5 104.14 77.1 62.51 78.35 62.51 129.18 104.14 124.31 104.14 178.84 136.41 171.32 136.41 120.54 168.35 116.81 168.35 75.17"/><polygon class="cls-2" points="172.63 67.6 141.47 53.15 141.65 53.12 172.77 67.5 172.63 67.6"/><polygon class="cls-47" points="135.99 109.25 155.7 118.29 155.06 118.36 135.6 109.46 135.99 109.25"/><polygon class="cls-62" points="135.6 109.46 135.67 109.39 165.8 75.2 166.18 75.24 135.99 109.51 135.6 109.46"/><polygon class="cls-48" points="117.03 100.99 116.97 101.13 111.12 91.53 111.47 91.53 117.03 100.56 117.03 100.99"/><path class="cls-53" d="m116.72,100.73c1.45-2.84,24.75-47.67,24.75-47.67l.08.04s-24.39,47.65-24.58,48.04l-.25-.4Z"/><polygon class="cls-36" points="136.34 125.06 121.19 109.12 121.54 108.73 136.53 124.7 136.34 125.06"/><polygon class="cls-40" points="116.34 114.84 116.14 114.69 121.54 108.73 121.86 109.06 116.34 114.84"/><polygon class="cls-39" points="27.09 127.16 62.51 101.64 62.51 129.18 104.14 124.31 104.14 140.57 87.31 141.41 27.09 127.16"/><polyline class="cls-42" points="94.11 125.52 85.41 126.5 85.82 135.02 99.58 133.67 94.11 125.52"/><path class="cls-28" d="m62.51,105.17l-3.58-.96-14.82,10.68c5.39.4,7.86-.4,9.74-.95,1.88-.54,4.82-2.47,6.87-2.61.28-.02,1.43-.22,1.79-.98v-5.18Z"/><polygon class="cls-23" points="200.21 70.74 171.58 82.51 170.66 123.65 200.21 70.74"/><polygon class="cls-6" points="180.01 66.67 200.47 70.79 175.47 67.84 180.01 66.67"/><polygon class="cls-20" points="148.02 56.01 152.37 55.95 163.48 59.37 176.96 66.89 171.59 66.96 148.02 56.01"/><polygon class="cls-32" points="104.14 124.31 93.98 125.5 104.14 140.32 104.14 124.31"/><polygon class="cls-5" points="100.31 134.73 104.14 136.01 104.14 140.43 100.31 134.73"/><polygon class="cls-16" points="104.14 129.31 97.76 126.9 97.05 125.63 97.05 125.14 104.14 124.31 104.14 129.31"/><polygon class="cls-30" points="62.51 105.17 62.51 101.64 58.93 104.21 62.51 105.17"/><polygon class="cls-41" points="136.41 76.13 135.56 76.13 135.56 23.23 136.41 23.02 136.41 76.13"/><polygon class="cls-38" points="136.4 23.88 104.13 21.37 104.16 20.5 136.41 23.02 136.4 23.88"/><rect class="cls-37" x="104.14" y="124.31" width=".89" height="54.53"/><polygon class="cls-49" points="136.44 171.47 135.56 171.32 135.56 120.54 136.44 120.54 136.44 171.47"/><polygon class="cls-34" points="104.14 179.01 104.14 178.11 136.38 170.59 136.44 171.47 104.14 179.01"/><g><path d="m196.66,171.08c-5.77,0-9.88-1.35-13.6-5.07l3.83-3.83c2.81,2.81,5.99,3.72,9.88,3.72,5.07,0,7.93-2.16,7.93-5.93,0-1.72-.43-3.08-1.51-4-.97-.86-2.27-1.34-4.21-1.62l-4.53-.65c-3.13-.49-5.56-1.45-7.23-3.08-1.89-1.72-2.86-4.21-2.86-7.39,0-6.69,4.86-11.22,12.84-11.22,5.12,0,8.63,1.3,11.92,4.37l-3.67,3.67c-2.37-2.27-5.18-2.97-8.47-2.97-4.53,0-6.96,2.48-6.96,5.99,0,1.4.38,2.7,1.4,3.55.97.87,2.1,1.41,4.21,1.73l4.59.7c3.51.54,5.45,1.35,7.12,2.86,2.05,1.89,3.13,4.53,3.13,7.88,0,7.07-5.72,11.28-13.81,11.28Z"/><path d="m249.38,170.76h-5.07l-7.82-26.92-7.77,26.92h-5.07l-10.04-38.42h6.15l6.69,27.47,7.72-27.47h4.69l7.72,27.47,6.69-27.47h6.15l-10.04,38.42Z"/><path d="m267.19,170.76v-38.42h5.82v38.42h-5.82Z"/><path d="m296.06,137.57v33.19h-5.83v-33.19h-10.58v-5.23h26.98v5.23h-10.58Z"/><path d="m310.3,170.76v-5.02l17.75-28.17h-17v-5.23h23.85v4.75l-17.86,28.44h17.86v5.23h-24.61Z"/><path d="m343.6,170.76v-38.42h24.55v5.23h-18.72v11.23h15.98v5.18h-15.98v11.55h18.72v5.23h-24.55Z"/><path d="m397.29,170.76l-8.09-16.19h-7.28v16.19h-5.83v-38.42h14.89c7.28,0,11.92,4.69,11.92,11.22,0,5.5-3.34,9.01-7.66,10.2l8.85,17h-6.8Zm-6.74-33.19h-8.63v12.04h8.63c3.88,0,6.53-2.21,6.53-5.99s-2.64-6.05-6.53-6.05Z"/><path d="m411.43,170.76v-38.42h5.82v33.19h16.71v5.23h-22.53Z"/><path d="m462.67,170.76l-2.64-7.72h-15.17l-2.64,7.72h-6.21l14.09-38.42h4.7l14.07,38.42h-6.21Zm-10.09-29.73l-5.99,17.05h11.82l-5.83-17.05Z"/><path d="m497.86,170.76l-17.76-27.03v27.03h-5.82v-38.42h5.34l17.75,26.98v-26.98h5.82v38.42h-5.33Z"/><path d="m537.09,165.9c-2.7,3.35-6.1,4.86-10.9,4.86h-13.49v-38.42h13.49c4.8,0,8.2,1.51,10.9,4.85,2.81,3.45,2.91,8.2,2.91,14.35s-.11,10.9-2.91,14.35Zm-4.97-25.73c-1.61-1.89-3.82-2.64-6.57-2.64h-7.03v28.05h7.03c2.75,0,4.96-.76,6.57-2.64,1.89-2.11,2.05-5.67,2.05-11.39s-.16-9.28-2.05-11.38Z"/><path d="m186.46,224.72v-38.42h5.83v38.42h-5.83Z"/><path d="m226.18,224.72l-17.75-27.03v27.03h-5.83v-38.42h5.34l17.75,26.98v-26.98h5.83v38.42h-5.34Z"/><path d="m265.41,224.72l-17.75-27.03v27.03h-5.83v-38.42h5.34l17.75,26.98v-26.98h5.83v38.42h-5.34Z"/><path d="m303.12,221.16c-2.48,2.48-5.72,3.88-9.93,3.88s-7.44-1.4-9.93-3.88c-3.78-3.77-3.88-7.61-3.88-15.65s.11-11.87,3.88-15.65c2.48-2.48,5.72-3.89,9.93-3.89s7.45,1.41,9.93,3.89c3.78,3.78,3.88,7.61,3.88,15.65s-.11,11.87-3.88,15.65Zm-4.21-27.62c-1.46-1.51-3.4-2.37-5.72-2.37s-4.26.86-5.72,2.37c-1.89,2.05-2.26,4.37-2.26,11.98s.38,9.88,2.26,11.92c1.46,1.51,3.4,2.43,5.72,2.43s4.26-.92,5.72-2.43c1.94-2,2.27-4.32,2.27-11.92s-.33-9.98-2.27-11.98Z"/><path d="m328.05,224.72h-4.53l-12.62-38.42h6.04l8.85,27.95,8.85-27.95h6.15l-12.73,38.42Z"/><path d="m365.99,224.72l-2.64-7.71h-15.16l-2.64,7.71h-6.2l14.08-38.42h4.69l14.08,38.42h-6.2Zm-10.09-29.73l-5.99,17.05h11.82l-5.83-17.05Z"/><path d="m387.41,191.54v33.18h-5.83v-33.18h-10.58v-5.24h26.98v5.24h-10.58Z"/><path d="m404.63,224.72v-38.42h5.83v38.42h-5.83Z"/><path d="m442.83,221.16c-2.48,2.48-5.72,3.88-9.93,3.88s-7.44-1.4-9.93-3.88c-3.77-3.77-3.88-7.61-3.88-15.65s.11-11.87,3.88-15.65c2.49-2.48,5.73-3.89,9.93-3.89s7.44,1.41,9.93,3.89c3.77,3.78,3.89,7.61,3.89,15.65s-.11,11.87-3.89,15.65Zm-4.21-27.62c-1.46-1.51-3.4-2.37-5.72-2.37s-4.26.86-5.72,2.37c-1.89,2.05-2.26,4.37-2.26,11.98s.38,9.88,2.26,11.92c1.46,1.51,3.4,2.43,5.72,2.43s4.26-.92,5.72-2.43c1.95-2,2.26-4.32,2.26-11.92s-.32-9.98-2.26-11.98Z"/><path d="m478.93,224.72l-17.75-27.03v27.03h-5.83v-38.42h5.34l17.75,26.98v-26.98h5.83v38.42h-5.34Z"/></g></g></g></svg>