<?xml version="1.0" encoding="UTF-8"?><svg id="Capa_2" xmlns="http://www.w3.org/2000/svg" viewBox="0 0 239.38 325.43"><defs><style>.cls-1{fill:#3849f6;}</style></defs><g id="Capa_1-2"><g><path class="cls-1" d="m239.38,90.89c-.05.4-.13.8-.16,1.2-.12,1.99-.16,3.98-.34,5.96-.5,5.56-1.59,11.01-3.19,16.35-8.12,27.17-28.4,48.68-55.04,58.37-3.92,1.43-6.52,4.06-7.98,7.97-8.08,21.69-22.37,37.98-42.81,48.8-8.28,4.38-17.1,7.23-26.35,8.76-6.41,1.06-12.86,1.44-19.32,1.05-22-1.34-41.01-9.66-56.88-24.95-12.56-12.1-20.77-26.76-24.89-43.7-1.01-4.17-1.68-8.39-2.05-12.67-.25-2.78-.34-5.55-.34-8.34,0-20.23.03-40.45-.01-60.68-.03-12.69,8.91-24.35,22.18-27.05,2.04-.41,4.1-.54,6.18-.54,8.95.01,17.9,0,26.85,0,2.89,0,5.35-1.93,5.99-4.75.16-.71.19-1.46.2-2.19.01-8.93.05-17.85,0-26.78-.08-11.91,7.73-22.84,19.46-26.47C83.69.36,86.6,0,89.56,0c19.92,0,39.83,0,59.75,0,11.3,0,22.23,1.95,32.79,6.01,24.89,9.58,44.3,29.84,52.75,55.11,1.9,5.68,3.2,11.5,3.88,17.46.28,2.41.48,4.83.49,7.26,0,.42.1.85.16,1.27v3.77ZM120.93,15.32c-10.42,0-20.84,0-31.27.01-1.11,0-2.25.05-3.33.3-5.77,1.3-9.68,6.25-9.68,12.2,0,11.96,0,23.91-.01,35.87,0,1.11-.04,2.25-.26,3.34-1.16,5.68-6.16,9.71-11.97,9.71-12.03,0-24.06,0-36.1.01-1.11,0-2.25.05-3.33.28-5.76,1.27-9.72,6.25-9.72,12.16,0,20.2,0,40.4,0,60.6,0,4.1.32,8.18.99,12.22,1.59,9.61,4.91,18.6,10.03,26.89,7.61,12.31,17.91,21.69,30.93,28.03,9.4,4.58,19.36,6.94,29.81,7.24,5.47.16,10.9-.31,16.27-1.38,14.64-2.94,27.26-9.7,37.81-20.24,9.31-9.3,15.64-20.36,19.09-33.07,1.29-4.76,4.36-7.86,9.13-9.16,13.03-3.56,24.35-10.08,33.75-19.79,12.9-13.32,19.83-29.31,20.9-47.81.32-5.6-.06-11.18-1.07-16.71-1.27-6.97-3.46-13.64-6.69-19.94-7.56-14.74-18.8-25.77-33.61-33.15-7.06-3.52-14.53-5.77-22.33-6.88-3.73-.53-7.49-.73-11.26-.73-9.36.02-18.72,0-28.07,0Z"/><path class="cls-1" d="m64.71,325.43c.01-.35.03-.71.03-1.06,0-15.09,0-30.19,0-45.28v-1.03c.7-.2,7.55-.22,8.47-.03-.05.9-.1,1.81-.17,2.73-.07.88-.17,1.76-.14,2.69.08-.1.17-.18.23-.29,1.88-3.02,4.63-4.83,8.04-5.59,4.76-1.06,9.17-.24,13.05,2.81,2.71,2.14,4.38,4.99,5.2,8.32,1.16,4.69,1.04,9.33-1,13.77-2.48,5.39-6.76,8.33-12.67,8.89-2.57.24-5.06-.09-7.43-1.15-1.99-.89-3.6-2.25-4.76-4.11-.1-.15-.21-.29-.42-.58,0,.32-.02.47,0,.61.27,2.22.38,4.46.37,6.7-.01,3.9,0,7.81,0,11.71,0,.3.01.6.02.9h-8.84Zm17.49-21.56c3.58.12,7.54-1.87,8.83-6.51.43-1.54.48-3.11.26-4.7-.61-4.38-3.73-7.6-8.12-7.96-3.77-.31-7.41,1.51-8.97,5.32-1.06,2.57-1.05,5.2-.22,7.84,1.17,3.75,4.43,6.09,8.23,5.99Z"/><path class="cls-1" d="m183.15,264.21h8.65c.09,2.27.03,4.53.04,6.78.01,2.27,0,4.53,0,6.8,0,2.24-.02,4.48-.05,6.71-.03,2.25-.09,4.51-.14,6.94.25-.24.39-.34.49-.48,3.05-4.4,6.59-8.42,9.91-12.61.21-.27.43-.45.81-.44,3.08.01,6.17,0,9.25.01.08,0,.16.03.23.05.01.04.03.06.03.09,0,.02,0,.06,0,.08-.04.07-.08.14-.13.21-4.19,5.1-8.39,10.2-12.58,15.31-.02.02-.02.05-.07.19,4.95,5.54,9.94,11.12,15.02,16.81-.33.02-.5.04-.68.04-3.19,0-6.38,0-9.58,0-.39,0-.72-.03-1.01-.37-3.15-3.7-6.32-7.37-9.46-11.08-.69-.81-1.26-1.72-1.88-2.58-.06-.09-.1-.2-.13-.27-.41.22-.29.49-.28.71.08,4.2.17,8.4.26,12.6,0,.29,0,.59,0,.94h-8.65s-.03-.03-.05-.05c-.02-.02-.05-.04-.05-.06-.02-.19-.05-.38-.05-.57,0-15.15,0-30.3.01-45.45,0-.08.05-.15.09-.29Z"/><path class="cls-1" d="m142.99,277.94h7.93c-.08,1.97-.16,3.9-.23,5.83.04.01.09.03.13.04.1-.14.23-.26.31-.42,1.66-3.28,4.39-5.15,7.92-5.87,2.85-.58,5.71-.45,8.48.47,3.79,1.25,6.15,3.9,7.32,7.66.58,1.86.83,3.78.84,5.73,0,6.22,0,12.44,0,18.66,0,.16-.02.32-.03.48-.58.17-7.42.23-8.75.06v-.93c0-5.51.02-11.02-.01-16.53,0-1.08-.09-2.19-.33-3.24-.81-3.63-3.5-5.4-7.16-5.2-5,.27-7.43,4.14-7.66,7.71-.03.49-.05.98-.05,1.47,0,5.21,0,10.42,0,15.63,0,.35,0,.7,0,1.11h-8.64s-.04-.03-.06-.04c-.02-.02-.04-.04-.04-.06-.02-.16-.06-.32-.06-.48,0-10.56,0-21.12,0-31.68,0-.1.04-.21.08-.4Z"/><path class="cls-1" d="m56.91,310.65h-7.74c-.08-1.84,0-3.65.11-5.46-.39-.07-.4.26-.5.44-1.56,2.73-3.87,4.51-6.9,5.25-3.88.95-7.65.62-11.12-1.51-2.79-1.71-4.4-4.32-5.32-7.41-.56-1.9-.8-3.84-.81-5.82-.01-5.84,0-11.68,0-17.52,0-.19.02-.38.03-.55.59-.2,7.42-.26,8.74-.08,0,.3.03.62.03.93,0,5.62,0,11.24,0,16.87,0,1.55.26,3.05.96,4.44,1.16,2.3,3.06,3.47,5.61,3.64,4.5.29,7.31-2.76,8.01-6.4.15-.8.2-1.63.21-2.44.02-5.35,0-10.7,0-16.05v-1.02h8.65c.17.61.21,31.7.03,32.69Z"/><path class="cls-1" d="m105.73,264.22h8.72c.02.35.05.69.05,1.03,0,6.88,0,13.76,0,20.63,0,4.34-.01,8.68.01,13.02,0,.87.09,1.75.28,2.59.36,1.58,1.4,2.45,3.02,2.49,1.1.03,2.21-.13,3.46-.21.49,2.05,1.01,4.2,1.53,6.4-.13.08-.23.17-.35.21-3.21,1.13-6.48,1.52-9.81.71-3.65-.88-5.7-3.37-6.47-6.94-.27-1.27-.42-2.59-.42-3.89-.03-11.71-.02-23.42-.02-35.13v-.91Z"/><path class="cls-1" d="m135.19,310.63h-8.69v-32.58c.59-.19,7.51-.24,8.69-.07v32.64Z"/><path class="cls-1" d="m130.85,273.72c-.48-.06-.98-.09-1.45-.2-2.62-.61-4.15-2.76-3.91-5.43.23-2.53,2.25-4.43,4.84-4.56,1.13-.06,2.23.06,3.25.61,1.91,1.02,2.73,2.66,2.65,4.78-.08,2.01-1.09,3.43-2.91,4.27-.78.36-1.61.51-2.47.53Z"/><path class="cls-1" d="m101.27,98.72c0-17.41,0-34.83,0-52.24,0-1.2.19-2.34.8-3.38,1.15-1.95,2.86-3.02,5.14-3.13.33-.02.65-.01.98-.01,13.64,0,27.28.03,40.92-.01,7.7-.02,15.1,1.38,22.03,4.75,13.86,6.72,22.87,17.52,26.83,32.45,1.37,5.16,1.74,10.43,1.3,15.75-.97,11.95-5.71,22.19-14.07,30.75-3.98,4.08-8.58,7.33-13.74,9.76-3.53,1.67-7.61-.21-8.59-3.93-.16-.62-.22-1.29-.22-1.94-.01-12.5-.01-25,0-37.5,0-1.48-.06-2.95-.54-4.36-1.69-4.96-5.06-8.09-10.28-8.79-6.64-.89-12.17,3.63-13.47,9.48-.21.95-.31,1.95-.31,2.92-.02,20.12-.02,40.23,0,60.35,0,3.31-.21,6.59-.82,9.85-1.82,9.65-6.13,18.03-12.93,25.09-6.79,7.04-14.98,11.65-24.52,13.82-5.17,1.18-10.41,1.49-15.69.95-11.07-1.14-20.7-5.5-28.79-13.13-7.89-7.44-12.78-16.55-14.68-27.25-.49-2.77-.73-5.57-.74-8.39,0-14.28,0-28.55,0-42.83,0-2.61,1.16-4.55,3.49-5.76.73-.38,1.53-.58,2.36-.6.35,0,.71-.01,1.06-.01,7.67,0,15.33,0,23,0,.73,0,1.48.03,2.19.19,2.67.61,4.57,2.98,4.66,5.72.01.44.01.87.01,1.31,0,13.89,0,27.79,0,41.68,0,5.44,3.62,10.35,8.79,11.97,6.92,2.17,14.43-2.42,15.61-9.58.16-.99.2-2.01.2-3.01.01-16.98,0-33.95,0-50.93Z"/></g></g></svg>